<?xml version="1.0" encoding="UTF-8"?>
<svg xmlns="http://www.w3.org/2000/svg" width="512" height="512" viewBox="0 0 512 512">
  <defs>
    <radialGradient id="g" cx="30%" cy="20%" r="80%">
      <stop offset="0%" stop-color="hsl(247 85% 42%)"/>
      <stop offset="55%" stop-color="hsl(150 70% 18%)"/>
      <stop offset="100%" stop-color="#050505"/>
    </radialGradient>
    <linearGradient id="gold" x1="0" y1="0" x2="1" y2="1">
      <stop offset="0%" stop-color="#ffd700"/>
      <stop offset="100%" stop-color="#f0a500"/>
    </linearGradient>
  </defs>
  <rect width="512" height="512" fill="url(#g)"/>
  <circle cx="5%" cy="52%" r="18" fill="hsl(247 80% 55%)" opacity="0.25" />
  <circle cx="94%" cy="87%" r="107" fill="hsl(275 80% 55%)" opacity="0.29" />
  <circle cx="93%" cy="33%" r="106" fill="hsl(303 80% 55%)" opacity="0.33" />
  <circle cx="92%" cy="68%" r="105" fill="hsl(331 80% 55%)" opacity="0.37" />
  <circle cx="91%" cy="13%" r="104" fill="hsl(359 80% 55%)" opacity="0.41" />
  <circle cx="90%" cy="48%" r="103" fill="hsl(27 80% 55%)" opacity="0.15" />
  <circle cx="89%" cy="83%" r="102" fill="hsl(55 80% 55%)" opacity="0.19" />
  <circle cx="88%" cy="28%" r="101" fill="hsl(83 80% 55%)" opacity="0.23" />
  <rect x="40" y="120" width="18" height="80" rx="9" fill="hsl(247 75% 60%)" opacity="0.45" />
  <rect x="76" y="160" width="18" height="98" rx="9" fill="hsl(259 75% 60%)" opacity="0.45" />
  <rect x="112" y="200" width="18" height="116" rx="9" fill="hsl(271 75% 60%)" opacity="0.45" />
  <rect x="148" y="120" width="18" height="134" rx="9" fill="hsl(283 75% 60%)" opacity="0.45" />
  <rect x="184" y="160" width="18" height="152" rx="9" fill="hsl(295 75% 60%)" opacity="0.45" />
  <rect x="220" y="200" width="18" height="170" rx="9" fill="hsl(307 75% 60%)" opacity="0.45" />
  <rect x="256" y="120" width="18" height="188" rx="9" fill="hsl(319 75% 60%)" opacity="0.45" />
  <rect x="292" y="160" width="18" height="206" rx="9" fill="hsl(331 75% 60%)" opacity="0.45" />
  <rect x="328" y="200" width="18" height="224" rx="9" fill="hsl(343 75% 60%)" opacity="0.45" />
  <rect x="364" y="120" width="18" height="242" rx="9" fill="hsl(355 75% 60%)" opacity="0.45" />
  <rect x="400" y="160" width="18" height="260" rx="9" fill="hsl(7 75% 60%)" opacity="0.45" />
  <rect x="436" y="200" width="18" height="278" rx="9" fill="hsl(19 75% 60%)" opacity="0.45" />
  <rect x="18" y="18" width="476" height="476" rx="28" fill="none" stroke="url(#gold)" stroke-width="3" opacity="0.75"/>
  <text x="50%" y="12%" text-anchor="middle" font-family="Arial, sans-serif" font-size="14" font-weight="700" letter-spacing="4" fill="#ffd700" opacity="0.9">3000 STUDIOS</text>
  <text x="50%" y="68%" text-anchor="middle" font-family="Arial Black, Impact, sans-serif" font-size="28" fill="#fff8e7" stroke="rgba(0,0,0,0.55)" stroke-width="1.2" paint-order="stroke">FIGGITY FA KIT</text>
  <text x="50%" y="92%" text-anchor="middle" font-family="Arial, sans-serif" font-size="13" fill="rgba(255,215,0,0.75)" letter-spacing="3">#13 · VIP CATALOG</text>
</svg>