<?xml version="1.0" encoding="UTF-8"?>
<svg xmlns="http://www.w3.org/2000/svg" width="512" height="512" viewBox="0 0 512 512">
  <defs>
    <radialGradient id="g" cx="30%" cy="20%" r="80%">
      <stop offset="0%" stop-color="hsl(332 85% 42%)"/>
      <stop offset="55%" stop-color="hsl(102 70% 18%)"/>
      <stop offset="100%" stop-color="#050505"/>
    </radialGradient>
    <linearGradient id="gold" x1="0" y1="0" x2="1" y2="1">
      <stop offset="0%" stop-color="#ffd700"/>
      <stop offset="100%" stop-color="#f0a500"/>
    </linearGradient>
  </defs>
  <rect width="512" height="512" fill="url(#g)"/>
  <circle cx="50%" cy="48%" r="63" fill="hsl(332 80% 55%)" opacity="0.27" />
  <circle cx="51%" cy="13%" r="64" fill="hsl(0 80% 55%)" opacity="0.23" />
  <circle cx="52%" cy="68%" r="65" fill="hsl(28 80% 55%)" opacity="0.19" />
  <circle cx="53%" cy="33%" r="66" fill="hsl(56 80% 55%)" opacity="0.15" />
  <circle cx="46%" cy="9%" r="59" fill="hsl(84 80% 55%)" opacity="0.13" />
  <circle cx="47%" cy="64%" r="60" fill="hsl(112 80% 55%)" opacity="0.39" />
  <circle cx="48%" cy="29%" r="61" fill="hsl(140 80% 55%)" opacity="0.35" />
  <circle cx="49%" cy="84%" r="62" fill="hsl(168 80% 55%)" opacity="0.31" />
  <rect x="40" y="120" width="18" height="80" rx="9" fill="hsl(332 75% 60%)" opacity="0.45" />
  <rect x="76" y="160" width="18" height="98" rx="9" fill="hsl(344 75% 60%)" opacity="0.45" />
  <rect x="112" y="200" width="18" height="116" rx="9" fill="hsl(356 75% 60%)" opacity="0.45" />
  <rect x="148" y="120" width="18" height="134" rx="9" fill="hsl(8 75% 60%)" opacity="0.45" />
  <rect x="184" y="160" width="18" height="152" rx="9" fill="hsl(20 75% 60%)" opacity="0.45" />
  <rect x="220" y="200" width="18" height="170" rx="9" fill="hsl(32 75% 60%)" opacity="0.45" />
  <rect x="256" y="120" width="18" height="188" rx="9" fill="hsl(44 75% 60%)" opacity="0.45" />
  <rect x="292" y="160" width="18" height="206" rx="9" fill="hsl(56 75% 60%)" opacity="0.45" />
  <rect x="328" y="200" width="18" height="224" rx="9" fill="hsl(68 75% 60%)" opacity="0.45" />
  <rect x="364" y="120" width="18" height="242" rx="9" fill="hsl(80 75% 60%)" opacity="0.45" />
  <rect x="400" y="160" width="18" height="260" rx="9" fill="hsl(92 75% 60%)" opacity="0.45" />
  <rect x="436" y="200" width="18" height="278" rx="9" fill="hsl(104 75% 60%)" opacity="0.45" />
  <rect x="18" y="18" width="476" height="476" rx="28" fill="none" stroke="url(#gold)" stroke-width="3" opacity="0.75"/>
  <text x="50%" y="12%" text-anchor="middle" font-family="Arial, sans-serif" font-size="14" font-weight="700" letter-spacing="4" fill="#ffd700" opacity="0.9">3000 STUDIOS</text>
  <text x="50%" y="68%" text-anchor="middle" font-family="Arial Black, Impact, sans-serif" font-size="28" fill="#fff8e7" stroke="rgba(0,0,0,0.55)" stroke-width="1.2" paint-order="stroke">Just Do You Boo</text>
  <text x="50%" y="92%" text-anchor="middle" font-family="Arial, sans-serif" font-size="13" fill="rgba(255,215,0,0.75)" letter-spacing="3">#21 · VIP CATALOG</text>
</svg>